<?xml version="1.0" encoding="utf-8"?>
<!-- Generator: Adobe Illustrator 21.0.0, SVG Export Plug-In . SVG Version: 6.00 Build 0)  -->
<svg version="1.1" id="Calque_1" xmlns="http://www.w3.org/2000/svg" xmlns:xlink="http://www.w3.org/1999/xlink" x="0px" y="0px"
	 viewBox="0 0 510.2 510.2" style="enable-background:new 0 0 510.2 510.2;" xml:space="preserve">
<style type="text/css">
	.st0{fill:#020203;}
</style>
<g>
	<path class="st0" d="M255.4,498.4c-134.9,0-244.7-109.8-244.7-244.7S120.5,9,255.4,9s244.7,109.8,244.7,244.7
		S390.4,498.4,255.4,498.4z M255.4,23.8c-126.8,0-229.9,103.1-229.9,229.9s103.1,229.9,229.9,229.9s229.9-103.1,229.9-229.9
		S382.2,23.8,255.4,23.8z"/>
	<path class="st0" d="M255.4,498.4c-50.9,0-99.9-15.7-141.6-45.4c-2.2-1.6-3.4-4.3-3.1-7c0.4-2.7,2.2-5,4.8-6
		c61.5-22.8,71.4-41.2,71.4-76.7c0-9.4-2.1-12.4-5.9-18c-5-7.3-11.9-17.4-16.7-43.6c-0.7-3.8-1.3-4.1-4.7-5.7
		c-9-4.3-17.2-10.6-19.4-39c0-13.8,4.7-21.4,8.7-25.3c-0.9-4.9-2.3-13.3-3.6-22.5c-6.7-41.2-7-91.6,50.9-115.1
		c50.5-20.5,90.8-9.3,103.4,4c9,0.3,32.1,2.6,48.1,21.3c24.7,28.8,16.9,94.4,14.2,112.1c3.9,3.9,8.7,11.4,8.7,24.8
		c-2.2,29-10.4,35.2-19.4,39.5c-3.4,1.6-4,1.9-4.7,5.7c-4.8,26.2-11.7,36.3-16.7,43.6c-3.8,5.6-5.9,8.6-5.9,18
		c0,35.4,9.9,53.9,71.4,76.7c2.6,0.9,4.4,3.2,4.8,6c0.4,2.7-0.8,5.4-3.1,7C355.3,482.7,306.4,498.4,255.4,498.4z M134.1,448.7
		c36.5,22.8,78.2,34.8,121.4,34.8s84.8-12,121.4-34.8c-51.5-21.1-67.7-42.5-67.7-85.3c0-14,4.1-20,8.5-26.4
		c4.5-6.6,10.1-14.8,14.4-37.9c2.1-11.2,8.5-14.3,12.8-16.4c4.6-2.2,9.4-4.5,11-26.7c0-11.3-5.1-14.4-5.3-14.5
		c-2.7-1.6-4.5-4.9-3.9-8c3.7-19.7,9.7-81.2-10.1-104.3c-13.5-15.7-34.9-16.2-38.9-16c-0.7-0.1-1.3-0.1-2-0.2
		c-1.9-0.5-5.2-2.2-6.2-3.9c-4-6.9-39.2-20.8-87.6-1.2c-47.9,19.4-48,61-41.8,99.1c2,14.2,4.3,26.5,4.3,26.5
		c0.6,3.3-1.1,6.7-4.2,8.1l0,0c0,0-5,3.1-5,14.9c1.7,21.7,6.4,24,11,26.2c4.3,2.1,10.8,5.2,12.8,16.4c4.3,23.1,9.9,31.3,14.4,37.9
		c4.4,6.4,8.5,12.4,8.5,26.4C201.8,406.3,185.6,427.6,134.1,448.7z"/>
</g>
</svg>
