<?xml version="1.0" encoding="utf-8"?>
<!-- Generator: Adobe Illustrator 21.0.0, SVG Export Plug-In . SVG Version: 6.00 Build 0)  -->
<svg version="1.1" id="Calque_1" xmlns="http://www.w3.org/2000/svg" xmlns:xlink="http://www.w3.org/1999/xlink" x="0px" y="0px"
	 viewBox="0 0 510.2 510.2" style="enable-background:new 0 0 510.2 510.2;" xml:space="preserve">
<style type="text/css">
	.st0{fill:#020203;}
</style>
<path class="st0" d="M425.7,502.3H79.3c-4.6,0-8.2-3.7-8.2-8.2v-76.3c0-0.6,0.1-1.3,0.2-1.9l61.3-257.7l16,3.8L87.6,418.7v67.1
	h329.9v-67.1l-58.7-256.8l16.1-3.7l58.8,257.7c0.1,0.6,0.2,1.2,0.2,1.8V494C433.9,498.6,430.2,502.3,425.7,502.3z M369.9,172.4
	H143.1c-3.3,0-6.3-2-7.6-5.1L73.6,18.9c-1.1-2.5-0.8-5.5,0.7-7.8c1.5-2.3,4.1-3.7,6.9-3.7h53.2c3.1,0,6,1.8,7.4,4.6l12.7,25.5
	l11-25.1c1.3-3,4.3-4.9,7.6-4.9h64.4c3.2,0,6.2,1.9,7.5,4.8l11.9,25.9l13.7-26.3c1.4-2.7,4.2-4.4,7.3-4.4h61c3,0,5.8,1.7,7.2,4.3
	l14.3,26.4l11.3-25.8c1.3-3,4.3-4.9,7.6-4.9h52.4c2.8,0,5.3,1.4,6.9,3.7c1.5,2.3,1.8,5.2,0.7,7.8l-61.8,148.4
	C376.2,170.4,373.2,172.4,369.9,172.4z M148.6,155.9h215.8l55-131.9h-34.7l-15.9,36.3c-1.3,2.9-4.1,4.8-7.2,4.9
	c-3.3,0-6.1-1.5-7.6-4.3L334,24h-51.1l-19.2,36.8c-1.5,2.8-4.3,4.6-7.5,4.4c-3.1-0.1-6-2-7.3-4.8L232.2,24h-53.7l-15.9,36.3
	c-1.3,2.9-4.1,4.9-7.3,4.9c-3.1,0.1-6.1-1.7-7.6-4.6L129.4,24H93.6L148.6,155.9L148.6,155.9z M120.6,221.9h263.9v16.5H120.6
	L120.6,221.9L120.6,221.9z M87.6,419.8h329.9v16.5H87.6C87.6,436.3,87.6,419.8,87.6,419.8z"/>
</svg>
