<?xml version="1.0" encoding="utf-8"?>
<!-- Generator: Adobe Illustrator 21.0.0, SVG Export Plug-In . SVG Version: 6.00 Build 0)  -->
<svg version="1.1" id="Calque_1" xmlns="http://www.w3.org/2000/svg" xmlns:xlink="http://www.w3.org/1999/xlink" x="0px" y="0px"
	 viewBox="0 0 510.2 510.2" style="enable-background:new 0 0 510.2 510.2;" xml:space="preserve">
<style type="text/css">
	.st0{fill:#020203;}
</style>
<g>
	<g>
		<path class="st0" d="M460.2,213.3h-15.6v-14.6c0-50.7-19.7-98.7-55.5-135C353.3,27.2,305.6,7.1,255.1,7.1s-98.2,20.1-134.2,56.6
			C85.1,100,65.4,148,65.4,198.7v14.6H49.9c-24.1,0-43.8,19.6-43.8,43.8v87.5c0,24.1,19.6,43.8,43.8,43.8H68
			c6,17,22.2,29.2,41.2,29.2c24.1,0,43.8-19.6,43.8-43.8V227.9c0-24.1-19.6-43.8-43.8-43.8c-4.9,0-9.7,0.8-14.1,2.4
			c6.2-83.9,75.6-150.2,160-150.2s153.8,66.3,160,150.2c-4.4-1.5-9.2-2.4-14.1-2.4c-24.1,0-43.8,19.6-43.8,43.8v145.9
			c0,19,12.2,35.2,29.2,41.2v17.1c0,8-6.5,14.6-14.6,14.6h-75.4c-6-17-22.2-29.2-41.2-29.2c-24.1,0-43.8,19.6-43.8,43.8
			c0,24.1,19.6,43.8,43.8,43.8c19,0,35.2-12.2,41.2-29.2h75.4c24.1,0,43.8-19.6,43.8-43.8V415c12.4-4.4,22.3-14.3,26.7-26.7h18.1
			c24.1,0,43.8-19.6,43.8-43.8V257C504,232.9,484.4,213.3,460.2,213.3z M65.4,359.1H49.9c-8,0-14.6-6.5-14.6-14.6V257
			c0-8,6.5-14.6,14.6-14.6h15.6V359.1z M109.2,213.3c8,0,14.6,6.5,14.6,14.6v145.9c0,8-6.5,14.6-14.6,14.6s-14.6-6.5-14.6-14.6
			V227.9C94.6,219.8,101.2,213.3,109.2,213.3z M255.1,475.8c-8,0-14.6-6.5-14.6-14.6c0-8,6.5-14.6,14.6-14.6s14.6,6.5,14.6,14.6
			C269.7,469.3,263.1,475.8,255.1,475.8z M415.5,373.7c0,8-6.5,14.6-14.6,14.6s-14.6-6.5-14.6-14.6V227.9c0-8,6.5-14.6,14.6-14.6
			s14.6,6.5,14.6,14.6V373.7z M474.8,344.6c0,8-6.5,14.6-14.6,14.6h-15.6V242.5h15.6c8,0,14.6,6.5,14.6,14.6V344.6z"/>
	</g>
</g>
</svg>
