<?xml version="1.0" encoding="utf-8"?>
<!-- Generator: Adobe Illustrator 21.0.0, SVG Export Plug-In . SVG Version: 6.00 Build 0)  -->
<svg version="1.1" id="Calque_1" xmlns="http://www.w3.org/2000/svg" xmlns:xlink="http://www.w3.org/1999/xlink" x="0px" y="0px"
	 viewBox="0 0 510.2 510.2" style="enable-background:new 0 0 510.2 510.2;" xml:space="preserve">
<style type="text/css">
	.st0{fill:#020203;}
</style>
<path class="st0" d="M469.7,162.5c-2-15.2-2.3-41.3,11.8-50c0.2-0.2,0.5-0.4,0.7-0.6c11.5-3.7,19.5-8.9,13.2-15.8L325.6,44.9
	L50.6,83.1c0,0-31.5,4.5-28.7,53.4c1.5,26.6,10,39.7,17.2,46.1l-22.6,6.8c-6.3,6.9,1.7,12.1,13.2,15.8c0.2,0.2,0.4,0.4,0.7,0.6
	c14.1,8.8,13.8,34.9,11.8,50c-50.6,14.3-32.4,19-32.4,19l11.1,2.7c-7.8,7-15.5,20.4-14.1,45.8c2.8,48.9,28.7,52.3,28.7,52.3
	l179.9,58.5L487,368.4c0,0,18.2-4.7-32.4-19c-2-15.1-2.3-41.2,11.8-50c0.2-0.2,0.5-0.4,0.7-0.6c11.5-3.7,19.5-8.8,13.2-15.8
	l-11.8-3.6c8-4.7,19.7-17.2,21.6-49.4c1.3-22.2-4.5-35.1-11.2-42.8l23.3-5.7C502.1,181.5,520.2,176.8,469.7,162.5L469.7,162.5z
	 M242.6,161.8l45.7-9.4l154.3-31.7l22.9-4.7c-7.3,13.5-7,31.8-5.8,43.7c0.3,2.7,0.6,5.1,0.9,7l-25.2,6.2l-194.8,48.5L242.6,161.8
	L242.6,161.8z M46.4,209.4l23,4.7l148.2,30.5l13,2.6l38.8,8l2,59.5L71.2,265l-19.7-4.9c0.3-1.9,0.6-4.3,0.9-7
	c1.2-11.8,1.5-30.2-5.8-43.7L46.4,209.4z M37.5,134.2c-0.3-13,2-22.4,6.7-27.2c2.3-2.4,5.6-3.7,8.9-3.7c0.8,0,1.5,0.1,2.2,0.2
	l118.5,38.6l59.1,19.3l-2,60L65.2,174.8l-8.8-2.4c-0.4-0.1-0.7-0.1-1.1-0.2C54.6,172.2,38.2,170.6,37.5,134.2L37.5,134.2z
	 M215.8,408.1L41.3,359.2c-0.4-0.1-0.7-0.2-1.1-0.2c-0.7,0-17.1-1.6-17.9-38c-0.3-13,2-22.4,6.7-27.2c2.4-2.4,5.6-3.7,8.9-3.6
	c0.8,0,1.5,0.1,2.3,0.2l177.6,57.9L215.8,408.1L215.8,408.1z M444.6,346.4c0.3,2.7,0.6,5.1,0.9,7l-220,54.7l2-59.5l46.9-9.6l6.9,1.7
	l26-8.5l120-24.7l23-4.7C443,316.3,443.3,334.7,444.6,346.4L444.6,346.4z M456.7,265.5c-0.4,0-0.8,0.1-1.2,0.2l-16.6,4.7l-158,44.3
	l-2-59.9l51.7-16.9l125.5-40.9c4.1-0.8,8.4,0.5,11.4,3.4c4.7,4.8,7,14.2,6.7,27.2c-0.8,36.5-17.2,38-17.9,38L456.7,265.5z"/>
</svg>
