<?xml version="1.0" encoding="utf-8"?>
<!-- Generator: Adobe Illustrator 21.0.0, SVG Export Plug-In . SVG Version: 6.00 Build 0)  -->
<svg version="1.1" id="Calque_1" xmlns="http://www.w3.org/2000/svg" xmlns:xlink="http://www.w3.org/1999/xlink" x="0px" y="0px"
	 viewBox="0 0 510.2 510.2" style="enable-background:new 0 0 510.2 510.2;" xml:space="preserve">
<style type="text/css">
	.st0{fill:#010202;}
</style>
<path class="st0" d="M255.1,509.6C114.8,509.6,0.7,395.4,0.7,255.1C0.7,114.8,114.8,0.7,255.1,0.7s254.5,114.1,254.5,254.5
	C509.6,395.4,395.4,509.6,255.1,509.6z M255.1,37.2c-120.2,0-217.9,97.8-217.9,217.9c0,120.2,97.8,217.9,217.9,217.9
	c120.2,0,217.9-97.8,217.9-217.9C473.1,134.9,375.3,37.2,255.1,37.2z"/>
<path class="st0" d="M280.6,254.6l78.6-77.7c7.1-7.1,7.2-18.6,0.1-25.7c-7.1-7.1-18.6-7.2-25.7-0.1l-78.7,77.8l-77.5-77.7
	c-7.1-7.1-18.6-7.1-25.7,0c-7.1,7.1-7.1,18.6,0,25.7l77.4,77.6l-78,77.2c-7.1,7.1-7.2,18.6-0.1,25.7c3.4,3.5,8.1,5.4,12.9,5.4
	c4.6,0,9.2-1.8,12.8-5.3l78.1-77.3l78.8,79c3.4,3.4,8,5.4,12.9,5.3c4.7,0,9.3-1.8,12.8-5.3c7.1-7.1,7.1-18.6,0-25.7L280.6,254.6
	L280.6,254.6z"/>
</svg>
