<?xml version="1.0" encoding="utf-8"?>
<!-- Generator: Adobe Illustrator 21.0.0, SVG Export Plug-In . SVG Version: 6.00 Build 0)  -->
<svg version="1.1" id="Calque_1" xmlns="http://www.w3.org/2000/svg" xmlns:xlink="http://www.w3.org/1999/xlink" x="0px" y="0px"
	 viewBox="0 0 510.2 510.2" style="enable-background:new 0 0 510.2 510.2;" xml:space="preserve">
<style type="text/css">
	.st0{fill:#010202;}
</style>
<path class="st0" d="M500.2,258.8L255.9,30.4L11.6,258.1c-4.8,4.5-5,11.9-0.6,16.7c4.5,4.8,12,5,16.7,0.6L255.9,62.8L484,276.1
	c2.2,2.1,5.1,3.2,8.1,3.2c3.2,0,6.3-1.3,8.6-3.7C505.2,270.8,504.9,263.3,500.2,258.8L500.2,258.8z"/>
<path class="st0" d="M425.6,263.5c-6.5,0-11.8,5.3-11.8,11.8v181.4H319V330.5H192.7v126.2H98V275.3c0-6.5-5.3-11.8-11.8-11.8
	c-6.5,0-11.8,5.3-11.8,11.8v205.1h142.1V354.2h79v126.2h142.1V275.3C437.5,268.8,432.2,263.5,425.6,263.5L425.6,263.5z M342.7,93.9
	h71.1V157c0,6.5,5.3,11.8,11.8,11.8c6.5,0,11.8-5.3,11.8-11.8V70.3h-94.7c-6.5,0-11.8,5.3-11.8,11.8
	C330.9,88.6,336.2,93.9,342.7,93.9z"/>
</svg>
