<?xml version="1.0" encoding="utf-8"?>
<!-- Generator: Adobe Illustrator 21.0.0, SVG Export Plug-In . SVG Version: 6.00 Build 0)  -->
<svg version="1.1" id="Calque_1" xmlns="http://www.w3.org/2000/svg" xmlns:xlink="http://www.w3.org/1999/xlink" x="0px" y="0px"
	 viewBox="0 0 510.2 510.2" style="enable-background:new 0 0 510.2 510.2;" xml:space="preserve">
<style type="text/css">
	.st0{fill:#FECA02;}
</style>
<path class="st0" d="M497.4,292.2c-7.5,20.9-17.6,38.4-30.3,52.5c-12,13.6-26.8,24.4-43.4,31.7c-16.2,7-33.6,10.6-51.2,10.5
	c-18.3,0-33-4.3-44.1-12.9c-10.9-8.6-16.5-19.6-16.5-32.7h-3.4c-6.8,10.8-17.4,21.2-31.6,31c-14.3,9.7-31.6,14.7-52.3,14.7
	c-31.2,0-55.3-10.2-72.2-30.6c-16.9-20.4-25.4-46.8-25.4-79.7c0-19.1,3.1-37.9,9.6-56.5c6.1-18.1,15.4-34.9,27.5-49.7
	c11.7-14.4,26.3-26.3,42.7-35c16.5-8.8,34.8-13.2,55.1-13.2c17.4,0,32.1,3.6,44.1,10.9c11.8,7.2,19.7,16.1,23.4,26.6h0.7l5.6-27.2
	h61.3l-27,128.8c-0.9,6.3-2.2,13.3-3.7,21.1c-1.5,7.2-2.3,14.5-2.4,21.8c0,7.7,1.5,14.1,4.5,19.5c2.9,5.2,8.8,7.8,17.5,7.8
	c17.9,0,32.7-9.5,44.4-28.6c11.6-19.1,17.5-44.6,17.5-76.9c0-27.2-4.6-51.5-13.8-72.5c-8.6-20.3-21.7-38.5-38.3-53.2
	c-16.2-14.3-35.7-25-58.1-32.3c-22.5-7.2-47.1-10.9-73.6-10.9c-29,0-55.4,5.1-79.4,15.3c-23.3,9.6-44.3,24-61.7,42.2
	c-17.2,18.3-30.6,39.8-39.5,63.3c-9.7,25-14.5,51.7-14.3,78.6c0,30,5,57,14.8,81c9.9,24.1,23.8,44.5,41.6,61.6
	c18.4,17.3,40.2,30.6,64,39.1c24.7,9,52.2,13.6,81.8,13.6c37.2,0,69.2-5.9,96-17.7c27.2-12.1,52.3-28.6,74-49l38,40.9
	c-26.6,28.3-59.6,49.8-96.3,62.6c-37.8,13.3-77.6,20-117.7,19.8c-39.5,0-75.5-6.2-107.7-18.8c-32.3-12.4-60-29.9-82.9-52.2
	c-23.2-22.6-41.4-49.9-53.3-80c-12.6-31.1-18.9-65-18.9-101.8c0-36.3,6.8-69.9,20.6-100.7c13.4-30.2,32.5-57.5,56.5-80.3
	C103.2,51.9,131,34.1,163,21.2C194.8,8.4,228.9,2,265,2c31.2,0,61.5,4.5,90.8,13.6c28.4,8.5,54.9,22.4,78.1,40.8
	c22.9,18.4,41.5,41.7,54.4,68.1c13.6,27.2,20.4,59.2,20.4,96C508.8,247.4,505.1,271.5,497.4,292.2z M299.9,197.4
	c-3.5-5.7-8.3-10.5-14.1-13.9c-5.9-3.6-13.2-5.4-21.9-5.4c-11,0-20.6,3.1-29,9.5c-8.5,6.6-15.6,14.8-21,24.2
	c-5.9,10.1-10.3,21-13.1,32.3c-2.9,11.1-4.4,22.6-4.5,34.1c0,5.4,0.6,11.1,1.7,17.4c1.2,6.1,3.4,11.7,6.8,17
	c3.4,5.2,7.9,9.5,13.4,12.9c5.6,3.4,12.9,5.1,22,5.1c12.4,0,23-3,31.7-9.2c8.7-6.1,15.9-13.8,21.3-23.2c5.6-9.3,9.5-19.5,12.2-30.3
	c2.4-10.9,3.7-20.9,3.7-29.9c0-7.2-0.7-14.4-2-21.5C305.8,209.7,303.4,203.3,299.9,197.4L299.9,197.4z"/>
</svg>
