<?xml version="1.0" encoding="utf-8"?>
<!-- Generator: Adobe Illustrator 21.0.0, SVG Export Plug-In . SVG Version: 6.00 Build 0)  -->
<svg version="1.1" id="Calque_1" xmlns="http://www.w3.org/2000/svg" xmlns:xlink="http://www.w3.org/1999/xlink" x="0px" y="0px"
	 viewBox="0 0 510.2 510.2" style="enable-background:new 0 0 510.2 510.2;" xml:space="preserve">
<style type="text/css">
	.st0{fill:#FECA02;}
</style>
<path class="st0" d="M342.2,2.9H158.5c-22.5,0-41.8,18.4-41.8,41.8v416.4c0,22.5,18.4,41.8,41.8,41.8h183.7
	c22.5,0,41.8-18.4,41.8-41.8V44.7C384.1,21.3,364.7,2.9,342.2,2.9L342.2,2.9z M224.8,36.6h50c5.1,0,8.2,4.1,8.2,8.2
	c0,5.1-4.1,8.2-8.2,8.2h-50c-4.1,0-8.2-4.1-8.2-8.2C216.7,39.6,220.8,36.6,224.8,36.6L224.8,36.6z M250.4,486.7
	c-14.3,0-24.5-11.2-24.5-24.5c0-14.3,11.2-25.5,24.5-25.5c14.3,0,25.5,11.2,25.5,25.5C275.9,475.4,264.7,486.7,250.4,486.7
	L250.4,486.7z M366.7,419.3H134V86.6h233.7v332.7H366.7z"/>
</svg>
