<?xml version="1.0" encoding="utf-8"?>
<!-- Generator: Adobe Illustrator 21.0.0, SVG Export Plug-In . SVG Version: 6.00 Build 0)  -->
<svg version="1.1" id="Calque_1" xmlns="http://www.w3.org/2000/svg" xmlns:xlink="http://www.w3.org/1999/xlink" x="0px" y="0px"
	 viewBox="0 0 510.2 510.2" style="enable-background:new 0 0 510.2 510.2;" xml:space="preserve">
<style type="text/css">
	.st0{fill:#FECA02;}
	.st1{fill:#FECA03;}
</style>
<ellipse transform="matrix(0.7071 -0.7071 0.7071 0.7071 -105.6742 255.12)" cx="255.1" cy="255.1" rx="254.5" ry="254.5"/>
<path class="st0" d="M255.1,509.6C114.8,509.6,0.7,395.4,0.7,255.1C0.7,114.8,114.8,0.7,255.1,0.7s254.5,114.1,254.5,254.5
	C509.6,395.4,395.4,509.6,255.1,509.6z M255.1,37.2c-120.2,0-217.9,97.8-217.9,217.9c0,120.2,97.8,217.9,217.9,217.9
	c120.2,0,217.9-97.8,217.9-217.9C473.1,134.9,375.3,37.2,255.1,37.2z"/>
<path class="st1" d="M272.7,236.7l0.6-110.5c0.1-10-8-18.2-18.1-18.3c-10-0.1-18.2,8-18.3,18.1l-0.6,110.7l-109.8-0.2
	c-10.1,0-18.2,8.1-18.2,18.1c0,10,8.1,18.2,18.1,18.2l109.6,0.2l-0.6,109.8c-0.1,10.1,8,18.2,18.1,18.3c4.9,0,9.5-1.9,13-5.3
	c3.3-3.3,5.3-7.8,5.3-12.8l0.6-109.9l111.6,0.2c4.8,0,9.5-1.9,12.9-5.3c3.3-3.3,5.3-7.8,5.3-12.8c0-10-8.1-18.2-18.1-18.2
	L272.7,236.7L272.7,236.7z"/>
</svg>
