<?xml version="1.0" encoding="utf-8"?>
<!-- Generator: Adobe Illustrator 21.0.0, SVG Export Plug-In . SVG Version: 6.00 Build 0)  -->
<svg version="1.1" id="Calque_1" xmlns="http://www.w3.org/2000/svg" xmlns:xlink="http://www.w3.org/1999/xlink" x="0px" y="0px"
	 viewBox="0 0 510.2 510.2" style="enable-background:new 0 0 510.2 510.2;" xml:space="preserve">
<style type="text/css">
	.st0{fill:#020203;}
</style>
<path class="st0" d="M498.7,144.4c-4.9-9.5-13.6-16.9-24.6-21l-179.7-67c-23.2-11.5-58.4-9-76.9-0.5L36.8,123.4
	c-11,4.1-19.7,11.5-24.6,21c-8.9,17.2-8.9,37.7,0,54.9c4.9,9.5,13.6,16.9,24.6,21l17.6,6.6V378h-9.9c-0.3,0-0.5,0.2-0.5,0.5v84.2
	c0,0.3,0.2,0.5,0.5,0.5H90c0.3,0,0.5-0.2,0.5-0.5l0-84.2c0-0.3-0.2-0.5-0.5-0.5H78.2l0-142.2l19.1,7.1V335
	c0,31.7,90.3,57.2,165,57.2s165-25.5,165-57.2v-97.3l46.7-17.4c11-4.1,19.7-11.5,24.6-21C507.6,182.1,507.6,161.6,498.7,144.4z
	 M404,333.1c-4.9,9.1-61.2,35.3-141.6,35.3c-80.3,0-136.6-26.2-141.2-33.3v-83.2l96.2,35.9c10.7,4.3,23.5,6.4,36.8,6.4
	c13.2,0,26.7-2.1,39.1-6.4l110.4-41.2L404,333.1z M477.5,188.4c-2.1,4.1-6.4,7.6-11.7,9.6l-180.5,67.4c-19.3,6.6-43,6.7-59.1,0.2
	L45.2,198c-5.3-2-9.6-5.5-11.7-9.6c-5.4-10.4-5.4-22.7,0-33c2.1-4.1,6.4-7.6,11.7-9.6l181.6-67.9c7.1-3.3,18.1-5.2,29.3-5.2
	c10.4,0,21,1.7,28.9,5.6l180.8,67.5c5.3,2,9.6,5.5,11.7,9.6C482.9,165.7,482.9,178,477.5,188.4z"/>
</svg>
