<?xml version="1.0" encoding="utf-8"?>
<!-- Generator: Adobe Illustrator 21.0.0, SVG Export Plug-In . SVG Version: 6.00 Build 0)  -->
<svg version="1.1" id="Calque_1" xmlns="http://www.w3.org/2000/svg" xmlns:xlink="http://www.w3.org/1999/xlink" x="0px" y="0px"
	 viewBox="0 0 510.2 510.2" style="enable-background:new 0 0 510.2 510.2;" xml:space="preserve">
<style type="text/css">
	.st0{fill:#020203;}
</style>
<g>
	<g>
		<g>
			<g>
				<path class="st0" d="M457.1,57.4c-6.8-8-16.7-12.6-27.2-12.6h-34.4V34.1c0-13.3-10.8-24.2-24.2-24.2H138
					c-13.3,0-24.2,10.8-24.2,24.2v10.8H79.5c-10.5,0-20.4,4.6-27.2,12.6c-6.7,7.9-9.6,18.3-8,28.5c9,55.6,44,104.7,93.7,131.6
					c4.5,10.9,9.7,21.2,15.4,30.9c18.3,30.8,41,52,66,62.3c2.5,25.6-14.5,49.9-40.2,55.7c-0.1,0-0.1,0-0.1,0
					c-5,1.2-8.7,5.7-8.7,11.1v52.3h-21.1c-18.9,0-34.2,15.3-34.2,34.2v27c0,6.3,5.1,11.4,11.4,11.4h257.8c6.3,0,11.4-5.1,11.4-11.4
					v-27c0-18.9-15.3-34.2-34.2-34.2h-21.1v-52.3c0-5.4-3.7-9.9-8.8-11.1c0,0-0.1,0-0.1,0c-25.9-5.8-43-30.3-40.2-56.2
					c24.6-10.4,46.9-31.5,64.9-61.8c5.7-9.6,10.9-20,15.4-30.9c49.7-26.9,84.6-76.1,93.7-131.6C466.8,75.7,463.8,65.3,457.1,57.4z
					 M66.8,82.3c-0.6-3.6,0.4-7.2,2.8-10.1c2.5-2.9,6-4.5,9.8-4.5h34.4v21c0,32.9,4.2,64.7,12.2,93.9
					C94.8,157.8,73.3,121.9,66.8,82.3z M361.3,452.6c6.3,0,11.4,5.1,11.4,11.4v15.6h-235V464c0-6.3,5.1-11.4,11.4-11.4H361.3z
					 M317.4,388.9v40.9H193.1v-40.9H317.4z M223,366.2c2.8-3.1,5.4-6.5,7.7-10.1c7.6-11.9,11.6-25.4,11.8-39.1
					c4,0.6,8.1,0.8,12.3,0.8c4.5,0,8.9-0.3,13.3-1c0.3,18.5,7.5,36,19.6,49.3L223,366.2L223,366.2z M372.7,88.6
					c0,56.2-12.9,108.8-36.3,148.2c-22.3,37.5-51.3,58.2-81.7,58.2c-30.4,0-59.4-20.7-81.7-58.2c-23.4-39.4-36.3-92-36.3-148.2V34.1
					c0-0.8,0.6-1.4,1.4-1.4h233.3c0.8,0,1.4,0.6,1.4,1.4V88.6z M442.6,82.3c-6.4,39.6-28,75.5-59.2,100.2c8-29.1,12.1-61,12.1-93.9
					v-21h34.4c3.8,0,7.4,1.7,9.8,4.5C442.2,75.1,443.2,78.6,442.6,82.3z"/>
			</g>
		</g>
	</g>
</g>
</svg>
