<?xml version="1.0" encoding="utf-8"?>
<!-- Generator: Adobe Illustrator 21.0.0, SVG Export Plug-In . SVG Version: 6.00 Build 0)  -->
<svg version="1.1" id="Calque_1" xmlns="http://www.w3.org/2000/svg" xmlns:xlink="http://www.w3.org/1999/xlink" x="0px" y="0px"
	 viewBox="0 0 510.2 510.2" style="enable-background:new 0 0 510.2 510.2;" xml:space="preserve">
<style type="text/css">
	.st0{fill:#FECA02;}
</style>
<path class="st0" d="M78,247.1l15,48.8c-2.6,7.6,1.5,15.8,9.1,18.4s15.8-1.5,18.4-9.1c1-2.9,1-6,0.1-8.9l25.9-76.3
	c3.2-9.5-3.8-19.3-13.8-19.3h0c-6.3,0-11.8,4-13.8,9.9l-12.7,37.8L95.8,214c-2.3-7.9-9.6-13.3-17.8-13.3h0
	c-8.2,0-15.4,5.4-17.8,13.2l-10.4,34.5l-12.6-37.8c-2-6-7.6-10-13.8-10h0c-10,0-17,9.8-13.8,19.3l25.9,76.3c2,5.9,7.5,9.8,13.7,9.8
	h0c6.4,0,12-4.2,13.9-10.3L78,247.1z M237.5,215.2l-10.4,34.5L214.6,212c-2-6-7.6-10-13.8-10c-10,0-17,9.8-13.8,19.3l25.9,76.3
	c2.6,7.6,10.8,11.6,18.4,9.1c4.4-1.5,7.9-5,9.2-9.5l14.8-48.8l14.9,48.8c1.9,6.1,7.5,10.3,13.9,10.3h0c6.2,0,11.7-4,13.7-9.8
	l25.9-76.3c3.2-9.5-3.8-19.3-13.8-19.3h0c-6.3,0-11.8,4-13.8,9.9l-12.7,37.8l-10.3-34.5c2.9-9.8-2.6-20.2-12.4-23.1
	c-9.8-2.9-20.2,2.6-23.1,12.4C236.5,208.1,236.5,211.8,237.5,215.2L237.5,215.2z M66.8,130.6c17.6,8.9,38.5,16.6,61.5,22.7
	c-0.4,1.7-0.8,3.4-1.2,5.1c-1.8,8.3,4.5,16.1,12.9,16.1c6.2,0,11.6-4.3,12.9-10.4c0.4-1.6,0.7-3.3,1.1-4.9c27.8,5.5,57.3,8.6,88,9.3
	v0.3c0,7.3,5.9,13.3,13.3,13.3c7.3,0,13.3-5.9,13.3-13.3v-0.3c30.6-0.7,60.1-3.8,88-9.3c0.4,1.6,0.8,3.3,1.1,4.9
	c1.3,6.1,6.7,10.4,12.9,10.4c8.5,0,14.8-7.8,12.9-16.1c-0.4-1.7-0.8-3.4-1.2-5.1c23-6,43.9-13.7,61.5-22.7
	c7.5,11.4,13.9,23.5,19.2,36c2,4.8,6.7,7.9,11.8,7.9h1c9.1,0,15.4-9.3,11.8-17.7l-0.1-0.2c-12.7-30-30.9-57-54-80.2
	c-23.2-23.2-50.1-41.3-80.2-54C322.4,9.2,289.4,2.5,255.3,2.5c-34,0-67.1,6.7-98.2,19.8c-30,12.7-57,30.9-80.2,54
	c-8.9,8.9-17.1,18.4-24.6,28.6c-0.3,0.3-0.5,0.7-0.8,1.1c-11.5,15.7-21.1,32.6-28.7,50.5l-0.1,0.2c-3.6,8.4,2.7,17.7,11.9,17.7h0.9
	c5.2,0,9.9-3.2,12-8C52.9,154,59.2,142,66.8,130.6L66.8,130.6z M414.9,95.1c4.5,4.5,8.7,9.1,12.8,13.9
	c-15.3,7.3-32.9,13.6-52.4,18.6c-5.4-17.3-12-33.4-19.7-48.1C348,65,339.5,52.4,330.4,41.8C361.8,52.8,390.7,70.9,414.9,95.1z
	 M268.6,30.7c9.2,2.3,18.3,7.1,27.2,14.2c13.5,10.9,25.7,26.7,36.4,47c6.7,12.7,12.4,26.6,17.3,41.6c-25.3,4.8-52.6,7.7-80.8,8.4
	V30.7z M214.9,44.9c8.8-7.1,17.9-11.9,27.1-14.2v111.2c-28.2-0.7-55.5-3.6-80.8-8.4c4.8-14.9,10.6-28.9,17.3-41.6
	C189.2,71.6,201.4,55.8,214.9,44.9L214.9,44.9z M95.8,95.1c24.3-24.3,53.1-42.3,84.5-53.4c-9.1,10.6-17.6,23.3-25.2,37.8
	c-7.7,14.7-14.3,30.8-19.8,48.1c-19.4-5-37.1-11.3-52.3-18.6C87,104.3,91.3,99.6,95.8,95.1z M445.2,376.8
	c-17.7-9.2-38.9-17-62.2-23.2c1.1-4.7,2.1-9.6,3-14.5c1.5-8.1-4.8-15.6-13-15.6h0c-6.4,0-11.9,4.6-13,10.8c-0.8,4.5-1.7,9-2.7,13.3
	c-28-5.5-57.7-8.7-88.6-9.4v-1.6c0-7.3-5.9-13.2-13.2-13.2h0c-7.3,0-13.2,5.9-13.2,13.2v1.6c-30.9,0.7-60.6,3.8-88.6,9.4
	c-1-4.4-1.9-8.8-2.7-13.3c-1.2-6.3-6.6-10.8-13-10.8c-8.3,0-14.5,7.5-13,15.6c0.9,4.9,1.9,9.7,3,14.5c-23.4,6.1-44.5,14-62.2,23.2
	c-9.1-14-16.5-29-22.2-44.6c-1.9-5.2-6.9-8.6-12.4-8.6h0c-9.1,0-15.6,9.1-12.5,17.7c1.4,3.9,3,7.8,4.6,11.7c12.7,30,30.9,57,54,80.2
	c23.2,23.1,50.1,41.3,80.2,54c31.1,13.2,64.1,19.8,98.2,19.8c34.1,0,67.1-6.7,98.2-19.8c30-12.7,57-30.9,80.2-54
	c23.1-23.2,41.3-50.1,54-80.2c1.6-3.9,3.2-7.8,4.6-11.7c3.1-8.6-3.3-17.7-12.5-17.7h0c-5.5,0-10.5,3.4-12.4,8.6
	C461.7,347.8,454.3,362.7,445.2,376.8L445.2,376.8z M95.8,414.3c-5.1-5.1-9.9-10.3-14.4-15.8c15.4-7.6,33.4-14.1,53.2-19.2
	c5.6,18.2,12.5,35.2,20.5,50.6c7.6,14.6,16.1,27.2,25.2,37.8C148.8,456.6,120,438.5,95.8,414.3z M242.1,478.7
	c-9.2-2.3-18.3-7-27.2-14.2c-13.5-10.9-25.7-26.7-36.4-47.1c-7-13.4-13.1-28.2-18.1-44.1c25.5-4.9,53.2-7.8,81.6-8.5L242.1,478.7
	L242.1,478.7L242.1,478.7z M295.7,464.5c-8.8,7.1-17.9,11.9-27.2,14.2V364.8c28.5,0.7,56.1,3.6,81.6,8.5
	c-5,15.9-11.1,30.7-18.1,44.1C321.5,437.8,309.2,453.7,295.7,464.5L295.7,464.5z M414.9,414.3c-24.2,24.3-53.1,42.3-84.5,53.4
	c9.1-10.6,17.6-23.3,25.2-37.8c8.1-15.4,14.9-32.4,20.5-50.6c19.8,5.2,37.8,11.7,53.2,19.2C424.8,403.9,420,409.2,414.9,414.3
	L414.9,414.3z M460.6,251l-10.2-34.5c-2.3-7.9-9.6-13.3-17.8-13.3h0c-8.2,0-15.4,5.4-17.8,13.2L404.5,251l-12.6-37.8
	c-2-6-7.6-10-13.8-10h0c-10,0-17,9.8-13.8,19.3l25.9,76.3c2.6,7.6,10.8,11.6,18.4,9.1c4.4-1.5,7.8-5,9.2-9.5l14.9-48.8l14.9,48.8
	c1.9,6.1,7.5,10.2,13.9,10.2h0c6.2,0,11.7-4,13.7-9.8l25.9-76.3c3.2-9.5-3.8-19.3-13.8-19.3h0c-6.3,0-11.8,4-13.8,9.9L460.6,251
	L460.6,251z"/>
</svg>
