<?xml version="1.0" encoding="utf-8"?>
<!-- Generator: Adobe Illustrator 21.0.0, SVG Export Plug-In . SVG Version: 6.00 Build 0)  -->
<svg version="1.1" id="Calque_1" xmlns="http://www.w3.org/2000/svg" xmlns:xlink="http://www.w3.org/1999/xlink" x="0px" y="0px"
	 viewBox="0 0 510.2 510.2" style="enable-background:new 0 0 510.2 510.2;" xml:space="preserve">
<style type="text/css">
	.st0{fill:#020203;}
</style>
<path class="st0" d="M55.8,130.2h144.9V241H55.8L55.8,130.2L55.8,130.2z M223.2,144.1h202.4v15.2H223.2L223.2,144.1L223.2,144.1z
	 M223.2,215.6h202.4v17.5H223.2L223.2,215.6L223.2,215.6z M40,293.1h387.7v17.5H40L40,293.1L40,293.1z M40,365.2l387.7,0.6v17.5
	L40,382.6V365.2z M486.8,97.3l-13.8-1.7l-1.4,11.2l13.8,1.7c5.3,0.7,9.1,5.5,8.4,10.8l-32.2,256.8l0-284.5c0-9.3-7.6-16.9-16.9-16.9
	H22.4c-9.3,0-16.9,7.6-16.9,16.9v317.1c0,9.3,7.6,16.9,16.9,16.9h422.4c2,0,3.9-0.3,5.6-1c9.6-0.9,17.6-8.4,18.8-18.3L505,120.8
	C506.5,109.3,498.3,98.8,486.8,97.3z M22.4,414.4c-3.1,0-5.6-2.5-5.6-5.6V91.7c0-3.1,2.5-5.6,5.6-5.6h422.4c3.1,0,5.6,2.5,5.6,5.6
	v317.1c0,2-1,3.7-2.6,4.7c-0.2,0-0.4,0-0.6,0l-0.1,0.4c-0.7,0.3-1.5,0.5-2.4,0.5L22.4,414.4L22.4,414.4z"/>
</svg>
