<?xml version="1.0" encoding="utf-8"?>
<!-- Generator: Adobe Illustrator 21.0.0, SVG Export Plug-In . SVG Version: 6.00 Build 0)  -->
<svg version="1.1" id="Calque_1" xmlns="http://www.w3.org/2000/svg" xmlns:xlink="http://www.w3.org/1999/xlink" x="0px" y="0px"
	 viewBox="0 0 510.2 510.2" style="enable-background:new 0 0 510.2 510.2;" xml:space="preserve">
<style type="text/css">
	.st0{fill:#FECA02;}
</style>
<path class="st0" d="M421.8,172.6C421.8,80.5,347.1,5.8,255,5.8c-92.1,0-166.8,74.7-166.8,166.8c0,37.7,13,72.1,34.1,100.1h-0.7
	L255,506.2l133.4-233.5h-0.7C408.8,244.7,421.8,210.3,421.8,172.6L421.8,172.6z M255,239.3c-36.9,0-66.7-29.9-66.7-66.7
	c0-36.9,29.9-66.7,66.7-66.7s66.7,29.9,66.7,66.7C321.7,209.5,291.8,239.3,255,239.3L255,239.3z"/>
</svg>
