<?xml version="1.0" encoding="utf-8"?>
<!-- Generator: Adobe Illustrator 21.0.0, SVG Export Plug-In . SVG Version: 6.00 Build 0)  -->
<svg version="1.1" id="Calque_1" xmlns="http://www.w3.org/2000/svg" xmlns:xlink="http://www.w3.org/1999/xlink" x="0px" y="0px"
	 viewBox="0 0 510.2 510.2" style="enable-background:new 0 0 510.2 510.2;" xml:space="preserve">
<style type="text/css">
	.st0{fill:#FECA02;}
</style>
<path class="st0" d="M484.8,298.1c2.6-14.2,4-28.6,4-43c0-142.7-127.3-256.6-276.6-229.5C189.9,10,163.3,1.7,136,1.7
	C61.9,1.8,1.9,61.8,1.8,135.9c0,27.5,8.2,53.7,23.9,76.2c-2.7,14.6-4,29-4,43c0,142.7,127.3,256.6,276.6,229.5
	c22.3,15.6,48.9,23.9,76.2,23.9c74,0,134.2-60.2,134.2-134.2C508.6,346.9,500.4,320.7,484.8,298.1z M374.5,478.7
	c-23,0-45.4-7.6-63.6-21.7l-5.4-4.2l-6.7,1.4c-110,24-218.7-45.8-242.6-155.9c-6.2-28.6-6.2-58.2,0-86.8l1.4-6.7l-4.2-5.4
	c-14.1-18.2-21.7-40.5-21.7-63.6C31.7,78.3,78.5,31.5,136,31.5c23.1,0,45.1,7.5,63.6,21.7l5.4,4.2l6.7-1.4
	c110-23.9,218.7,45.9,242.6,155.9c6.2,28.6,6.2,58.1,0,86.7l-1.4,6.7l4.2,5.4c14.2,18.5,21.7,40.5,21.7,63.6
	C478.8,431.9,432,478.7,374.5,478.7L374.5,478.7z M381,307c0,63.1-60.9,92.2-119.2,92.2c-69.9,0-128.3-31.1-128.3-69.3
	c0-17.1,9.6-32.6,31.4-32.6c33.2,0,36.3,47.8,93.8,47.8c27.3,0,45-12.1,45-27.9c0-19.9-17.1-23-44.7-29.8l-45.3-11.2
	c-45.3-10.9-80.1-29.5-80.1-81.7c0-63,62.4-86.3,116.1-86.3c58.7,0,118,23.3,118,59c0,18-12.1,33.9-32.3,33.9
	c-30.1,0-31.1-35.7-79.8-35.7c-27.3,0-44.7,7.4-44.7,23.9c0,18,17.7,22.1,41.3,27.7l32.3,7.5C328.5,234.3,381,252.9,381,307L381,307
	z"/>
</svg>
